<?xml version="1.0" standalone="no"?>
<!DOCTYPE svg PUBLIC "-//W3C//DTD SVG 20010904//EN"
 "http://www.w3.org/TR/2001/REC-SVG-20010904/DTD/svg10.dtd">
<svg version="1.0" xmlns="http://www.w3.org/2000/svg"
 width="309.000000pt" height="309.000000pt" viewBox="0 0 309.000000 309.000000"
 preserveAspectRatio="xMidYMid meet">
<metadata>
Created by potrace 1.14, written by Peter Selinger 2001-2017
</metadata>
<g transform="translate(0.000000,309.000000) scale(0.100000,-0.100000)"
fill="#000000" stroke="none">
<path d="M0 1545 l0 -1545 1545 0 1545 0 0 1545 0 1545 -1545 0 -1545 0 0
-1545z m1555 1228 c-5 -16 -10 -83 -12 -149 l-4 -121 -60 -34 c-84 -47 -215
-123 -494 -287 l-240 -140 -5 -185 c-3 -102 -8 -188 -11 -191 -3 -3 -23 9 -45
27 -21 19 -66 52 -99 74 -34 23 -66 47 -72 55 -8 9 -11 66 -10 174 l2 160 170
110 c93 60 217 137 275 171 123 73 158 94 248 149 37 22 121 73 187 112 66 39
129 78 140 86 30 23 38 19 30 -11z m145 -59 c25 -17 111 -70 191 -117 224
-131 346 -208 444 -280 50 -37 133 -90 185 -119 l96 -52 -4 -325 c-1 -179 -4
-336 -5 -349 l-2 -24 -41 30 c-23 17 -64 42 -90 55 -84 43 -82 34 -87 286 l-4
224 -69 40 c-38 22 -156 92 -263 156 -107 64 -240 143 -296 176 -159 95 -145
76 -156 207 -5 62 -11 125 -14 140 l-4 27 37 -22 c20 -12 57 -36 82 -53z m759
-204 c49 -33 105 -67 125 -75 l36 -15 0 -75 c0 -41 -4 -75 -9 -75 -5 0 -60 34
-122 76 -63 42 -120 79 -128 83 -11 7 -12 23 -7 75 4 36 10 66 12 66 3 0 45
-27 93 -60z m-1723 3 c3 -27 11 -56 16 -65 6 -12 5 -18 -3 -18 -6 0 -59 -34
-119 -75 -145 -101 -140 -100 -140 -30 0 66 2 69 124 159 41 30 77 59 81 65
15 26 34 9 41 -36z m819 -150 c-3 -15 -6 -78 -6 -140 1 -99 -1 -115 -18 -132
-16 -16 -118 -80 -227 -141 l-31 -18 -130 56 c-72 32 -132 60 -134 65 -4 8
165 113 361 225 63 36 129 76 145 89 39 30 49 29 40 -4z m85 -13 c22 -11 106
-62 187 -114 82 -51 198 -122 258 -159 l110 -65 3 -156 c2 -86 1 -156 -3 -156
-3 0 -27 17 -53 39 -26 21 -69 51 -97 67 -27 15 -93 55 -145 89 -52 34 -137
88 -188 120 -54 33 -97 66 -102 79 -8 21 -19 276 -12 276 1 0 21 -9 42 -20z
m-590 -413 c80 -30 156 -58 170 -62 14 -4 81 -33 150 -65 69 -32 186 -83 260
-112 74 -29 321 -145 548 -259 227 -114 421 -209 430 -211 16 -5 17 -14 10
-109 -5 -56 -10 -104 -12 -106 -7 -8 -184 82 -250 127 -40 28 -106 65 -147 84
-106 48 -356 173 -482 241 -94 50 -112 56 -132 47 -21 -10 -35 -6 -92 25 -37
19 -126 62 -198 93 -109 49 -257 119 -365 173 -22 11 -26 22 -35 97 -6 47 -14
92 -20 100 -7 12 -6 13 6 4 8 -6 79 -36 159 -67z m-369 -428 l62 -31 -4 -181
-4 -182 70 -53 c39 -29 115 -78 170 -109 55 -31 152 -89 215 -128 63 -40 168
-100 233 -134 l117 -63 0 -111 c0 -62 4 -129 9 -150 l9 -38 -46 27 c-26 15
-180 110 -342 212 -162 102 -356 222 -430 268 -74 46 -155 96 -180 111 l-45
28 -6 160 c-4 88 -9 233 -12 322 l-5 162 64 -39 c35 -22 91 -53 125 -71z m704
-355 l160 -90 1 -120 c1 -67 5 -136 9 -155 7 -32 7 -33 -11 -18 -11 9 -46 31
-79 49 -33 18 -114 68 -180 111 -66 43 -172 112 -234 152 l-115 74 -4 141 -3
140 148 -98 c82 -53 220 -137 308 -186z m677 32 c42 -20 80 -36 85 -36 4 0 19
-9 32 -19 l23 -18 -98 -60 c-55 -34 -130 -79 -169 -101 -69 -39 -106 -60 -267
-154 -45 -27 -82 -48 -82 -48 -6 0 8 279 15 292 5 9 72 48 149 87 76 39 147
82 157 95 20 27 11 29 155 -38z m281 -163 c18 -9 75 -33 127 -52 52 -20 94
-40 94 -46 0 -10 -46 -38 -350 -215 -81 -47 -183 -107 -228 -134 -44 -27 -126
-74 -181 -104 -55 -30 -129 -72 -164 -94 -40 -24 -61 -32 -57 -22 3 9 6 73 6
143 l0 127 38 18 c53 26 256 142 332 191 156 100 180 115 236 143 32 17 68 37
79 46 25 20 29 20 68 -1z m-1725 -252 c71 -49 139 -94 152 -101 l22 -12 -32
-33 c-25 -25 -31 -40 -28 -59 3 -14 3 -26 1 -26 -3 0 -30 19 -61 43 -31 24
-85 63 -119 86 -46 30 -63 48 -63 64 0 12 -3 46 -6 75 -4 28 -4 52 -1 52 3 0
64 -40 135 -89z m1997 -21 c0 -58 -3 -80 -13 -80 -7 0 -58 -29 -113 -65 -55
-36 -102 -65 -104 -65 -3 0 -5 9 -5 19 0 11 -12 34 -27 52 -27 31 -27 32 -8
46 37 26 260 171 265 172 3 1 5 -35 5 -79z"/>
</g>
</svg>
